<?xml version="1.0" standalone="no"?>
<!DOCTYPE svg PUBLIC "-//W3C//DTD SVG 20010904//EN"
 "http://www.w3.org/TR/2001/REC-SVG-20010904/DTD/svg10.dtd">
<svg version="1.0" xmlns="http://www.w3.org/2000/svg"
 width="732.000000pt" height="732.000000pt" viewBox="0 0 732.000000 732.000000"
 preserveAspectRatio="xMidYMid meet">
<metadata>
Created by potrace 1.11, written by Peter Selinger 2001-2013
</metadata>
<g transform="translate(0.000000,732.000000) scale(0.100000,-0.100000)"
fill="#000000" stroke="none">
<path d="M1650 7296 c0 -13 -7 -26 -15 -30 -8 -3 -15 -1 -15 5 0 6 -4 8 -9 5
-12 -8 -19 -76 -9 -82 5 -3 5 -10 2 -16 -3 -5 -6 -83 -6 -173 0 -90 3 -168 6
-173 3 -6 2 -13 -3 -17 -7 -3 -7 -15 -1 -30 6 -15 6 -27 0 -30 -5 -3 -6 -15
-1 -27 4 -11 4 -40 1 -65 -4 -24 -3 -46 1 -49 5 -2 4 -16 -1 -29 -6 -15 -6
-27 1 -30 5 -4 6 -11 3 -17 -3 -5 -6 -83 -6 -173 0 -90 3 -168 6 -173 3 -6 2
-13 -3 -17 -7 -3 -7 -15 -1 -30 6 -15 6 -27 0 -30 -6 -3 -6 -15 0 -29 5 -13 6
-26 3 -29 -7 -8 -9 -357 -1 -357 4 0 3 -13 -2 -30 -5 -17 -5 -32 0 -35 5 -3 5
-16 0 -30 -6 -15 -6 -27 0 -30 6 -3 6 -15 0 -30 -6 -15 -6 -27 0 -30 6 -3 6
-15 0 -30 -5 -13 -6 -26 -2 -29 8 -5 6 -96 -3 -104 -2 -2 0 -12 5 -21 5 -10 5
-23 0 -30 -4 -8 -4 -27 0 -42 5 -16 5 -31 0 -34 -4 -3 -4 -21 0 -40 4 -19 5
-35 1 -35 -8 0 -5 -125 3 -139 4 -5 2 -12 -3 -16 -7 -3 -7 -15 -1 -30 6 -15 6
-27 0 -30 -6 -3 -6 -15 0 -30 6 -15 6 -27 0 -30 -6 -3 -6 -15 0 -30 6 -15 6
-27 0 -30 -6 -3 -6 -15 0 -30 6 -15 6 -27 0 -30 -6 -3 -6 -15 0 -30 6 -15 6
-27 0 -30 -6 -3 -6 -15 0 -30 6 -15 6 -27 0 -30 -6 -3 -6 -15 0 -30 6 -15 6
-27 0 -30 -6 -3 -6 -15 0 -30 6 -15 6 -27 0 -30 -5 -3 -6 -16 -1 -28 7 -22 5
-86 -4 -95 -2 -3 0 -12 5 -21 5 -10 5 -23 0 -30 -4 -8 -4 -27 0 -42 5 -16 5
-31 0 -34 -4 -3 -4 -21 0 -40 4 -19 5 -35 1 -35 -3 0 -6 -92 -6 -205 0 -113 3
-205 7 -205 4 0 3 -13 -2 -30 -5 -17 -5 -32 0 -35 5 -3 5 -16 0 -30 -6 -15 -6
-27 0 -30 6 -3 6 -15 0 -30 -6 -15 -6 -27 0 -30 6 -3 6 -15 0 -30 -5 -13 -6
-26 -2 -29 5 -3 5 -30 2 -61 -3 -31 -3 -58 2 -61 4 -3 3 -16 -2 -29 -6 -15 -6
-27 1 -30 5 -4 6 -11 3 -17 -8 -13 -8 -333 0 -346 3 -6 2 -13 -3 -17 -7 -3 -7
-15 -1 -30 6 -15 6 -27 0 -30 -5 -3 -6 -15 -1 -27 4 -11 4 -40 1 -65 -4 -24
-3 -46 1 -49 5 -2 4 -16 -1 -29 -6 -15 -6 -27 1 -30 5 -4 6 -11 3 -17 -3 -5
-6 -83 -6 -173 0 -90 3 -168 6 -173 3 -6 2 -13 -3 -17 -7 -3 -7 -15 -1 -30 6
-15 6 -27 0 -30 -5 -3 -6 -16 -1 -28 7 -22 5 -86 -4 -95 -2 -3 0 -12 5 -21 5
-10 5 -23 0 -30 -4 -8 -4 -27 0 -42 5 -16 5 -31 0 -34 -4 -3 -4 -21 0 -40 4
-19 5 -35 1 -35 -8 0 -5 -125 3 -139 4 -5 2 -12 -3 -16 -7 -3 -7 -15 -1 -30 6
-15 6 -27 0 -30 -6 -3 -6 -15 0 -30 6 -15 6 -27 0 -30 -6 -3 -6 -15 0 -30 6
-15 6 -27 0 -30 -6 -3 -6 -15 0 -30 6 -15 6 -27 0 -30 -6 -3 -6 -15 0 -30 6
-15 6 -27 0 -30 -6 -3 -6 -15 0 -30 6 -15 6 -27 0 -30 -6 -3 -6 -15 0 -30 6
-15 6 -27 0 -30 -6 -3 -6 -15 0 -30 6 -15 6 -27 0 -30 -5 -3 -6 -16 -1 -28 7
-22 5 -86 -4 -95 -2 -3 0 -12 5 -21 5 -10 5 -23 0 -30 -4 -8 -4 -27 0 -42 5
-16 5 -31 0 -34 -4 -3 -4 -21 0 -40 4 -19 5 -35 1 -35 -3 0 -6 -16 -6 -35 0
-19 3 -35 7 -35 4 0 3 -13 -2 -28 -4 -16 -4 -35 1 -43 4 -8 4 -21 -1 -28 -4
-8 -4 -27 0 -42 5 -16 5 -31 0 -34 -4 -3 -4 -21 0 -40 4 -19 5 -35 1 -35 -8 0
-5 -125 3 -139 4 -5 2 -12 -3 -16 -7 -3 -7 -15 -1 -30 6 -15 6 -27 0 -30 -6
-3 -6 -15 0 -30 6 -15 6 -27 0 -30 -6 -3 -6 -15 0 -30 6 -15 6 -27 0 -30 -5
-3 -6 -15 0 -29 4 -12 4 -29 0 -36 -5 -8 -5 -21 0 -30 4 -8 4 -22 0 -31 -5 -8
-5 -21 -1 -28 4 -7 6 -24 3 -38 -4 -20 -9 -24 -28 -20 -13 2 -24 0 -24 -5 0
-5 -4 -7 -8 -4 -7 4 -62 7 -112 6 -8 -1 -69 -1 -135 -1 -66 0 -128 0 -137 0
-65 0 -401 0 -413 1 -8 0 -21 0 -27 1 -7 0 -38 0 -68 0 -30 -1 -80 -1 -110 0
-96 1 -90 4 -90 -51 l0 -50 1201 0 1200 0 -3 52 -3 52 -85 -3 c-47 -2 -91 -2
-97 -2 -7 1 -19 1 -25 2 -7 1 -35 0 -63 0 -27 -1 -140 -1 -250 -2 -110 0 -204
0 -210 0 -5 0 -59 0 -120 0 -60 0 -117 0 -125 0 -8 0 -50 1 -92 2 l-78 2 0
3549 0 3549 148 0 c81 0 155 0 165 0 9 0 118 0 242 0 124 0 232 0 240 0 8 0
116 0 240 0 124 0 232 0 240 0 8 0 116 0 240 0 124 0 232 0 240 0 8 0 116 0
240 0 124 0 232 0 240 0 8 0 116 0 240 0 124 0 232 0 240 0 8 0 116 0 240 0
124 0 231 0 238 0 6 0 68 -1 135 -1 68 -1 126 1 129 4 3 3 14 1 24 -4 17 -10
18 -32 18 -358 l0 -347 -43 -2 c-90 -3 -247 -54 -324 -105 -24 -15 -46 -28
-49 -28 -10 0 -87 -64 -133 -110 -60 -59 -100 -112 -139 -181 -34 -61 -83
-179 -74 -179 3 0 0 -7 -7 -15 -7 -8 -10 -15 -7 -15 3 0 1 -15 -4 -32 -8 -30
-23 -149 -21 -173 1 -5 3 -41 6 -79 5 -74 24 -165 38 -180 4 -6 8 -18 8 -27 0
-22 90 -199 101 -199 4 0 10 -8 14 -19 9 -30 136 -154 205 -201 60 -41 204
-111 227 -111 2 0 17 -5 35 -10 18 -5 49 -12 68 -15 19 -2 44 -6 55 -9 11 -2
25 -4 32 -4 9 -1 12 -81 12 -335 l0 -334 -761 380 -761 381 -18 -24 c-10 -13
-16 -26 -13 -28 2 -2 -1 -10 -8 -18 -6 -7 -9 -15 -7 -17 2 -3 356 -180 786
-395 l782 -391 0 -781 0 -780 -319 -637 c-175 -350 -319 -641 -319 -646 1 -5
-3 -12 -8 -15 -16 -11 -143 -282 -137 -292 6 -10 75 -41 80 -36 9 9 164 326
164 336 0 6 3 11 8 11 6 0 35 54 37 70 1 3 15 32 32 65 72 138 83 161 83 173
0 6 3 12 8 12 6 0 35 54 37 70 1 3 22 47 48 97 26 51 47 96 46 99 0 4 3 10 8
13 7 5 137 259 138 271 1 3 14 30 30 60 16 30 44 86 63 125 18 38 38 76 45 83
8 10 97 -159 385 -735 206 -411 375 -749 376 -750 5 -6 86 33 86 40 0 5 -177
364 -394 798 l-394 788 -2 133 c-1 73 -1 139 -1 146 2 34 3 128 2 222 -1 58
-1 130 0 160 0 30 0 102 0 160 -1 58 -1 130 0 160 0 30 0 102 0 160 0 58 -1
175 -1 261 l-1 157 68 33 c37 19 71 38 74 42 3 5 8 8 10 6 6 -3 184 85 187 94
2 4 8 7 14 7 14 0 302 143 306 153 2 4 8 7 14 7 14 0 222 103 226 113 2 4 8 7
14 7 14 0 382 183 386 193 2 4 8 7 14 7 9 0 247 116 256 125 5 4 -37 85 -44
85 -4 0 -348 -171 -765 -379 l-759 -380 -1 42 c-1 23 0 47 1 52 1 6 2 30 0 55
-1 25 -2 51 -1 58 3 40 3 175 1 400 -1 34 3 62 7 63 69 7 127 16 143 22 8 3
40 13 70 23 267 83 484 319 556 604 22 90 26 297 6 376 -8 29 -15 58 -16 65
-10 47 -71 173 -117 241 -97 142 -250 261 -409 317 -76 27 -101 32 -194 45
-21 2 -40 6 -42 8 -3 4 -5 60 -3 138 0 30 0 102 0 160 -1 58 -1 128 0 155 0
28 0 105 0 173 l-1 122 -25 0 c-20 0 -25 5 -25 25 l0 25 -1800 0 -1800 0 0
-24z"/>
</g>
</svg>
